<?xml version="1.0" encoding="UTF-8" standalone="no"?>
<!-- Created with Inkscape (http://www.inkscape.org/) -->

<svg
   width="500"
   height="100"
   viewBox="0 0 132.29166 26.458334"
   version="1.1"
   id="svg1463"
   inkscape:version="1.4 (e7c3feb100, 2024-10-09)"
   sodipodi:docname="keepassdx.svg"
   xmlns:inkscape="http://www.inkscape.org/namespaces/inkscape"
   xmlns:sodipodi="http://sodipodi.sourceforge.net/DTD/sodipodi-0.dtd"
   xmlns="http://www.w3.org/2000/svg"
   xmlns:svg="http://www.w3.org/2000/svg"
   xmlns:rdf="http://www.w3.org/1999/02/22-rdf-syntax-ns#"
   xmlns:cc="http://creativecommons.org/ns#"
   xmlns:dc="http://purl.org/dc/elements/1.1/">
  <defs
     id="defs1457">
    <filter
       style="color-interpolation-filters:sRGB"
       inkscape:label="Drop Shadow"
       id="filter4648-0-8"
       x="-0.16319635"
       y="-0.28867842"
       width="1.3263927"
       height="1.6976395">
      <feFlood
         flood-opacity="0.2"
         flood-color="rgb(0,0,0)"
         result="flood"
         id="feFlood4650-9-4" />
      <feComposite
         in="flood"
         in2="SourceGraphic"
         operator="in"
         result="composite1"
         id="feComposite4652-3-5" />
      <feGaussianBlur
         in="composite1"
         stdDeviation="4"
         result="blur"
         id="feGaussianBlur4654-6-0" />
      <feOffset
         dx="0"
         dy="4"
         result="offset"
         id="feOffset4656-0-3" />
      <feComposite
         in="SourceGraphic"
         in2="offset"
         operator="over"
         result="fbSourceGraphic"
         id="feComposite4658-6-6" />
      <feColorMatrix
         result="fbSourceGraphicAlpha"
         in="fbSourceGraphic"
         values="0 0 0 -1 0 0 0 0 -1 0 0 0 0 -1 0 0 0 0 1 0"
         id="feColorMatrix4672-2-1" />
      <feFlood
         id="feFlood4674-6-0"
         flood-opacity="0.2"
         flood-color="rgb(0,0,0)"
         result="flood"
         in="fbSourceGraphic" />
      <feComposite
         id="feComposite4676-1-6"
         in2="fbSourceGraphic"
         in="flood"
         operator="in"
         result="composite1" />
      <feGaussianBlur
         id="feGaussianBlur4678-8-3"
         in="composite1"
         stdDeviation="4"
         result="blur" />
      <feOffset
         id="feOffset4680-7-2"
         dx="0"
         dy="4"
         result="offset" />
      <feComposite
         id="feComposite4682-9-0"
         in2="offset"
         in="fbSourceGraphic"
         operator="over"
         result="composite2" />
    </filter>
    <filter
       style="color-interpolation-filters:sRGB"
       inkscape:label="Drop Shadow"
       id="filter1447">
      <feFlood
         flood-opacity="0.2"
         flood-color="rgb(0,0,0)"
         result="flood"
         id="feFlood1425" />
      <feComposite
         in="flood"
         in2="SourceGraphic"
         operator="in"
         result="composite1"
         id="feComposite1427" />
      <feGaussianBlur
         in="composite1"
         stdDeviation="4"
         result="blur"
         id="feGaussianBlur1429" />
      <feOffset
         dx="0"
         dy="4"
         result="offset"
         id="feOffset1431" />
      <feComposite
         in="SourceGraphic"
         in2="offset"
         operator="over"
         result="fbSourceGraphic"
         id="feComposite1433" />
      <feColorMatrix
         result="fbSourceGraphicAlpha"
         in="fbSourceGraphic"
         values="0 0 0 -1 0 0 0 0 -1 0 0 0 0 -1 0 0 0 0 1 0"
         id="feColorMatrix1435" />
      <feFlood
         id="feFlood1437"
         flood-opacity="0.2"
         flood-color="rgb(0,0,0)"
         result="flood"
         in="fbSourceGraphic" />
      <feComposite
         id="feComposite1439"
         in2="fbSourceGraphic"
         in="flood"
         operator="in"
         result="composite1" />
      <feGaussianBlur
         id="feGaussianBlur1441"
         in="composite1"
         stdDeviation="4"
         result="blur" />
      <feOffset
         id="feOffset1443"
         dx="0"
         dy="4"
         result="offset" />
      <feComposite
         id="feComposite1445"
         in2="offset"
         in="fbSourceGraphic"
         operator="over"
         result="composite2" />
    </filter>
    <filter
       style="color-interpolation-filters:sRGB;"
       inkscape:label="Drop Shadow"
       id="filter2"
       x="-0.027262719"
       y="-0.14184398"
       width="1.0715646"
       height="1.4609929">
      <feFlood
         result="flood"
         in="SourceGraphic"
         flood-opacity="0.498039"
         flood-color="rgb(0,0,0)"
         id="feFlood1" />
      <feGaussianBlur
         result="blur"
         in="SourceGraphic"
         stdDeviation="2.000000"
         id="feGaussianBlur1" />
      <feOffset
         result="offset"
         in="blur"
         dx="6.000000"
         dy="6.000000"
         id="feOffset1" />
      <feComposite
         result="comp1"
         operator="in"
         in="flood"
         in2="offset"
         id="feComposite1" />
      <feComposite
         result="fbSourceGraphic"
         operator="over"
         in="SourceGraphic"
         in2="comp1"
         id="feComposite2" />
      <feColorMatrix
         result="fbSourceGraphicAlpha"
         in="fbSourceGraphic"
         values="0 0 0 -1 0 0 0 0 -1 0 0 0 0 -1 0 0 0 0 1 0"
         id="feColorMatrix2" />
      <feFlood
         id="feFlood2"
         result="flood"
         in="fbSourceGraphic"
         flood-opacity="0.498039"
         flood-color="rgb(0,0,0)" />
      <feGaussianBlur
         id="feGaussianBlur2"
         result="blur"
         in="fbSourceGraphic"
         stdDeviation="2.000000" />
      <feOffset
         id="feOffset2"
         result="offset"
         in="blur"
         dx="0.000000"
         dy="6.000000" />
      <feComposite
         id="feComposite3"
         result="comp1"
         operator="in"
         in="flood"
         in2="offset" />
      <feComposite
         id="feComposite4"
         result="comp2"
         operator="over"
         in="fbSourceGraphic"
         in2="comp1" />
    </filter>
    <filter
       style="color-interpolation-filters:sRGB;"
       inkscape:label="Drop Shadow"
       id="filter6"
       x="-0.040894079"
       y="-0.21276597"
       width="1.0817882"
       height="1.6028369">
      <feFlood
         result="flood"
         in="SourceGraphic"
         flood-opacity="0.498039"
         flood-color="rgb(0,0,0)"
         id="feFlood4" />
      <feGaussianBlur
         result="blur"
         in="SourceGraphic"
         stdDeviation="3.000000"
         id="feGaussianBlur4" />
      <feOffset
         result="offset"
         in="blur"
         dx="0.000000"
         dy="6.000000"
         id="feOffset4" />
      <feComposite
         result="comp1"
         operator="in"
         in="flood"
         in2="offset"
         id="feComposite5" />
      <feComposite
         result="fbSourceGraphic"
         operator="over"
         in="SourceGraphic"
         in2="comp1"
         id="feComposite6" />
      <feColorMatrix
         result="fbSourceGraphicAlpha"
         in="fbSourceGraphic"
         values="0 0 0 -1 0 0 0 0 -1 0 0 0 0 -1 0 0 0 0 1 0"
         id="feColorMatrix6" />
      <feFlood
         id="feFlood6"
         result="flood"
         in="fbSourceGraphic"
         flood-opacity="0.250980"
         flood-color="rgb(0,0,0)" />
      <feGaussianBlur
         id="feGaussianBlur6"
         result="blur"
         in="fbSourceGraphic"
         stdDeviation="3.000000" />
      <feOffset
         id="feOffset6"
         result="offset"
         in="blur"
         dx="0.000000"
         dy="6.000000" />
      <feComposite
         id="feComposite7"
         result="comp1"
         operator="in"
         in="flood"
         in2="offset" />
      <feComposite
         id="feComposite8"
         result="comp2"
         operator="over"
         in="fbSourceGraphic"
         in2="comp1" />
    </filter>
    <filter
       style="color-interpolation-filters:sRGB;"
       inkscape:label="Drop Shadow"
       id="filter12"
       x="-0.040894079"
       y="-0.21276597"
       width="1.0817882"
       height="1.5141844">
      <feFlood
         result="flood"
         in="SourceGraphic"
         flood-opacity="0.501961"
         flood-color="rgb(0,0,0)"
         id="feFlood11" />
      <feGaussianBlur
         result="blur"
         in="SourceGraphic"
         stdDeviation="3.000000"
         id="feGaussianBlur11" />
      <feOffset
         result="offset"
         in="blur"
         dx="0.000000"
         dy="3.000000"
         id="feOffset11" />
      <feComposite
         result="comp1"
         operator="in"
         in="flood"
         in2="offset"
         id="feComposite11" />
      <feComposite
         result="fbSourceGraphic"
         operator="over"
         in="SourceGraphic"
         in2="comp1"
         id="feComposite12" />
      <feColorMatrix
         result="fbSourceGraphicAlpha"
         in="fbSourceGraphic"
         values="0 0 0 -1 0 0 0 0 -1 0 0 0 0 -1 0 0 0 0 1 0"
         id="feColorMatrix12" />
      <feFlood
         id="feFlood12"
         result="flood"
         in="fbSourceGraphic"
         flood-opacity="0.501961"
         flood-color="rgb(0,0,0)" />
      <feGaussianBlur
         id="feGaussianBlur12"
         result="blur"
         in="fbSourceGraphic"
         stdDeviation="3.000000" />
      <feOffset
         id="feOffset12"
         result="offset"
         in="blur"
         dx="0.000000"
         dy="3.000000" />
      <feComposite
         id="feComposite13"
         result="comp1"
         operator="in"
         in="flood"
         in2="offset" />
      <feComposite
         id="feComposite14"
         result="comp2"
         operator="over"
         in="fbSourceGraphic"
         in2="comp1" />
    </filter>
    <filter
       style="color-interpolation-filters:sRGB;"
       inkscape:label="Drop Shadow"
       id="filter16"
       x="-0.020447039"
       y="-0.10638299"
       width="1.0408941"
       height="1.2570922">
      <feFlood
         result="flood"
         in="SourceGraphic"
         flood-opacity="0.501961"
         flood-color="rgb(0,0,0)"
         id="feFlood14" />
      <feGaussianBlur
         result="blur"
         in="SourceGraphic"
         stdDeviation="3.000000"
         id="feGaussianBlur14" />
      <feOffset
         result="offset"
         in="blur"
         dx="0.000000"
         dy="3.000000"
         id="feOffset14" />
      <feComposite
         result="comp1"
         operator="in"
         in="flood"
         in2="offset"
         id="feComposite15" />
      <feComposite
         result="comp2"
         operator="over"
         in="SourceGraphic"
         in2="comp1"
         id="feComposite16" />
    </filter>
    <filter
       style="color-interpolation-filters:sRGB;"
       inkscape:label="Drop Shadow"
       id="filter18"
       x="-0.061198631"
       y="-0.10825441"
       width="1.1223973"
       height="1.2616148">
      <feFlood
         result="flood"
         in="SourceGraphic"
         flood-opacity="0.501961"
         flood-color="rgb(0,0,0)"
         id="feFlood16" />
      <feGaussianBlur
         result="blur"
         in="SourceGraphic"
         stdDeviation="3.000000"
         id="feGaussianBlur16" />
      <feOffset
         result="offset"
         in="blur"
         dx="0.000000"
         dy="3.000000"
         id="feOffset16" />
      <feComposite
         result="comp1"
         operator="in"
         in="flood"
         in2="offset"
         id="feComposite17" />
      <feComposite
         result="comp2"
         operator="over"
         in="SourceGraphic"
         in2="comp1"
         id="feComposite18" />
    </filter>
    <filter
       style="color-interpolation-filters:sRGB;"
       inkscape:label="Drop Shadow"
       id="filter10"
       x="-0.020447039"
       y="-0.10638299"
       width="1.0408941"
       height="1.2570922">
      <feFlood
         result="flood"
         in="SourceGraphic"
         flood-opacity="0.501961"
         flood-color="rgb(0,0,0)"
         id="feFlood3" />
      <feGaussianBlur
         result="blur"
         in="SourceGraphic"
         stdDeviation="3.000000"
         id="feGaussianBlur3" />
      <feOffset
         result="offset"
         in="blur"
         dx="0.000000"
         dy="3.000000"
         id="feOffset3" />
      <feComposite
         result="comp1"
         operator="in"
         in="flood"
         in2="offset"
         id="feComposite9" />
      <feComposite
         result="comp2"
         operator="over"
         in="SourceGraphic"
         in2="comp1"
         id="feComposite10" />
    </filter>
    <filter
       style="color-interpolation-filters:sRGB;"
       inkscape:label="Drop Shadow"
       id="filter20"
       x="-0.061198631"
       y="-0.10825441"
       width="1.1223973"
       height="1.2616148">
      <feFlood
         result="flood"
         in="SourceGraphic"
         flood-opacity="0.501961"
         flood-color="rgb(0,0,0)"
         id="feFlood10" />
      <feGaussianBlur
         result="blur"
         in="SourceGraphic"
         stdDeviation="3.000000"
         id="feGaussianBlur10" />
      <feOffset
         result="offset"
         in="blur"
         dx="0.000000"
         dy="3.000000"
         id="feOffset10" />
      <feComposite
         result="comp1"
         operator="in"
         in="flood"
         in2="offset"
         id="feComposite19" />
      <feComposite
         result="comp2"
         operator="over"
         in="SourceGraphic"
         in2="comp1"
         id="feComposite20" />
    </filter>
  </defs>
  <sodipodi:namedview
     id="base"
     pagecolor="#ffffff"
     bordercolor="#666666"
     borderopacity="1.0"
     inkscape:pageopacity="0"
     inkscape:pageshadow="2"
     inkscape:zoom="1.979899"
     inkscape:cx="177.02923"
     inkscape:cy="102.53048"
     inkscape:document-units="mm"
     inkscape:current-layer="layer1"
     showgrid="true"
     units="px"
     inkscape:window-width="3440"
     inkscape:window-height="1403"
     inkscape:window-x="0"
     inkscape:window-y="0"
     inkscape:window-maximized="1"
     inkscape:showpageshadow="2"
     inkscape:pagecheckerboard="0"
     inkscape:deskcolor="#d1d1d1">
    <inkscape:grid
       type="xygrid"
       id="grid2076"
       originx="0"
       originy="0"
       spacingy="1"
       spacingx="1"
       units="px" />
  </sodipodi:namedview>
  <metadata
     id="metadata1460">
    <rdf:RDF>
      <cc:Work
         rdf:about="">
        <dc:format>image/svg+xml</dc:format>
        <dc:type
           rdf:resource="http://purl.org/dc/dcmitype/StillImage" />
        <dc:title />
      </cc:Work>
    </rdf:RDF>
  </metadata>
  <g
     inkscape:label="Layer 1"
     inkscape:groupmode="layer"
     id="layer1"
     transform="translate(0,-270.54163)">
    <g
       aria-label="KeePass"
       transform="matrix(0.2623161,0,0,0.2623161,-120.17993,264.75234)"
       style="font-style:normal;font-weight:normal;line-height:0.01%;font-family:sans-serif;letter-spacing:0px;word-spacing:0px;display:inline;fill:#42a048;fill-opacity:1;stroke:none;stroke-width:1px;stroke-linecap:butt;stroke-linejoin:miter;stroke-opacity:1;filter:url(#filter10)"
       id="flowRoot4617-2">
      <path
         d="m 469.44812,101.67102 h 12.33 V 72.421025 l 20.61,29.249995 h 14.85 l -25.02,-33.839995 25.02,-32.67 h -14.85 l -20.61,28.71 v -28.71 h -12.33 z"
         style="font-style:normal;font-variant:normal;font-weight:600;font-stretch:normal;font-size:90px;line-height:1.25;font-family:'URW Gothic L';-inkscape-font-specification:'URW Gothic L Semi-Bold';fill:#42a048;fill-opacity:1"
         id="path2154"
         inkscape:connector-curvature="0" />
      <path
         d="m 573.32078,82.051025 c 0.36,-1.71 0.45,-2.79 0.45,-4.59 0,-15.48 -10.89,-26.82 -25.74,-26.82 -14.67,0 -26.28,11.61 -26.28,26.28 0,14.58 11.79,25.919995 27,25.919995 8.19,0 14.58,-2.969995 19.8,-8.999995 1.89,-2.34 3.15,-4.41 3.96,-6.93 h -13.05 c -3.06,3.6 -6.03,4.95 -10.98,4.95 -7.11,0 -12.33,-3.78 -13.77,-9.81 z m -38.97,-10.53 c 1.89,-6.39 6.75,-9.9 13.86,-9.9 7.38,0 12.24,3.51 13.77,9.9 z"
         style="font-style:normal;font-variant:normal;font-weight:600;font-stretch:normal;font-size:90px;line-height:1.25;font-family:'URW Gothic L';-inkscape-font-specification:'URW Gothic L Semi-Bold';fill:#42a048;fill-opacity:1"
         id="path2156"
         inkscape:connector-curvature="0" />
      <path
         d="m 630.97703,82.051025 c 0.36,-1.71 0.45,-2.79 0.45,-4.59 0,-15.48 -10.89,-26.82 -25.74,-26.82 -14.67,0 -26.28,11.61 -26.28,26.28 0,14.58 11.79,25.919995 27,25.919995 8.19,0 14.58,-2.969995 19.8,-8.999995 1.89,-2.34 3.15,-4.41 3.96,-6.93 h -13.05 c -3.06,3.6 -6.03,4.95 -10.98,4.95 -7.11,0 -12.33,-3.78 -13.77,-9.81 z m -38.97,-10.53 c 1.89,-6.39 6.75,-9.9 13.86,-9.9 7.38,0 12.24,3.51 13.77,9.9 z"
         style="font-style:normal;font-variant:normal;font-weight:600;font-stretch:normal;font-size:90px;line-height:1.25;font-family:'URW Gothic L';-inkscape-font-specification:'URW Gothic L Semi-Bold';fill:#42a048;fill-opacity:1"
         id="path2158"
         inkscape:connector-curvature="0" />
      <path
         d="m 640.48328,101.67102 h 12.33 V 76.381025 h 3.96 c 9.45,0 13.77,-0.72 17.46,-2.97 5.4,-3.33 8.73,-10.08 8.73,-17.73 0,-7.65 -3.24,-13.95 -9,-17.46 -3.78,-2.25 -8.19,-3.06 -17.01,-3.06 h -16.47 z m 12.33,-37.079995 v -17.64 h 4.14 c 4.05,0 5.85,0.18 7.83,0.63 3.6,0.99 5.76,4.14 5.76,8.28 0,3.24 -1.44,5.76 -4.05,7.2 -1.89,0.99 -5.31,1.53 -10.08,1.53 z"
         style="font-style:normal;font-variant:normal;font-weight:600;font-stretch:normal;font-size:90px;line-height:1.25;font-family:'URW Gothic L';-inkscape-font-specification:'URW Gothic L Semi-Bold';fill:#42a048;fill-opacity:1"
         id="path2160"
         inkscape:connector-curvature="0" />
      <path
         d="m 740.1625,51.811025 h -10.98 v 6.66 c -4.14,-5.49 -9.09,-7.83 -16.29,-7.83 -14.76,0 -25.38,11.07 -25.38,26.28 0,15.03 10.53,25.919995 25.11,25.919995 7.02,0 11.79,-2.25 16.56,-7.649995 v 6.479995 h 10.98 z m -26.01,9.81 c 8.55,0 14.67,6.39 14.67,15.48 0,3.6 -1.44,7.74 -3.6,10.26 -2.43,2.88 -6.3,4.5 -10.89,4.5 -8.73,0 -14.76,-5.94 -14.76,-14.67 0,-9.09 6.03,-15.57 14.58,-15.57 z"
         style="font-style:normal;font-variant:normal;font-weight:600;font-stretch:normal;font-size:90px;line-height:1.25;font-family:'URW Gothic L';-inkscape-font-specification:'URW Gothic L Semi-Bold';fill:#42a048;fill-opacity:1"
         id="path2162"
         inkscape:connector-curvature="0" />
      <path
         d="m 745.93656,85.831025 c 0.54,4.86 1.35,7.38 3.33,10.08 3.24,4.319995 8.91,6.929995 14.94,6.929995 9.99,0 17.82,-7.469995 17.82,-17.009995 0,-4.32 -1.62,-7.92 -4.68,-10.35 -1.89,-1.62 -4.86,-2.88 -9.18,-4.23 -4.86,-1.53 -4.86,-1.53 -6.03,-2.07 -1.62,-0.72 -2.43,-1.89 -2.43,-3.33 0,-2.43 1.98,-4.23 4.59,-4.23 2.52,0 4.14,1.35 4.68,3.96 h 11.7 c -0.18,-4.23 -1.17,-6.75 -3.6,-9.45 -3.15,-3.51 -7.83,-5.49 -12.78,-5.49 -9.27,0 -16.56,6.66 -16.56,15.21 0,7.29 3.96,11.43 13.86,14.76 4.59,1.53 4.95,1.71 6.21,2.52 1.44,0.9 2.25,2.25 2.25,3.87 0,2.79 -2.34,4.86 -5.4,4.86 -3.51,0 -5.49,-1.8 -6.66,-6.03 z"
         style="font-style:normal;font-variant:normal;font-weight:600;font-stretch:normal;font-size:90px;line-height:1.25;font-family:'URW Gothic L';-inkscape-font-specification:'URW Gothic L Semi-Bold';fill:#42a048;fill-opacity:1"
         id="path2164"
         inkscape:connector-curvature="0" />
      <path
         d="m 785.48734,85.831025 c 0.54,4.86 1.35,7.38 3.33,10.08 3.24,4.319995 8.91,6.929995 14.94,6.929995 9.99,0 17.82,-7.469995 17.82,-17.009995 0,-4.32 -1.62,-7.92 -4.68,-10.35 -1.89,-1.62 -4.86,-2.88 -9.18,-4.23 -4.86,-1.53 -4.86,-1.53 -6.03,-2.07 -1.62,-0.72 -2.43,-1.89 -2.43,-3.33 0,-2.43 1.98,-4.23 4.59,-4.23 2.52,0 4.14,1.35 4.68,3.96 h 11.7 c -0.18,-4.23 -1.17,-6.75 -3.6,-9.45 -3.15,-3.51 -7.83,-5.49 -12.78,-5.49 -9.27,0 -16.56,6.66 -16.56,15.21 0,7.29 3.96,11.43 13.86,14.76 4.59,1.53 4.95,1.71 6.21,2.52 1.44,0.9 2.25,2.25 2.25,3.87 0,2.79 -2.34,4.86 -5.4,4.86 -3.51,0 -5.49,-1.8 -6.66,-6.03 z"
         style="font-style:normal;font-variant:normal;font-weight:600;font-stretch:normal;font-size:90px;line-height:1.25;font-family:'URW Gothic L';-inkscape-font-specification:'URW Gothic L Semi-Bold';fill:#42a048;fill-opacity:1"
         id="path2166"
         inkscape:connector-curvature="0" />
    </g>
    <g
       aria-label="DX"
       transform="matrix(0.2623161,0,0,0.2623161,-24.893603,264.75234)"
       style="font-style:normal;font-weight:normal;line-height:0.01%;font-family:sans-serif;letter-spacing:0px;word-spacing:0px;display:inline;fill:#fb8c00;fill-opacity:1;stroke:none;stroke-width:1px;stroke-linecap:butt;stroke-linejoin:miter;stroke-opacity:1;filter:url(#filter20)"
       id="flowRoot4501-9">
      <path
         d="m 469.44812,101.67102 h 15.48001 c 10.07999,0 16.10999,-0.99 21.51,-3.689995 10.25999,-5.04 16.28999,-16.02 16.28999,-29.43 0,-12.6 -5.22,-23.04 -14.49,-28.62 -5.22,-3.15 -13.14,-4.77 -23.58,-4.77 h -15.21 z m 12.33,-11.789995 v -42.93 h 2.43 c 7.83,0 12.06,0.72 15.93,2.7 6.30001,3.24 10.17001,10.35 10.17001,18.9 0,8.01 -3.69,15.12 -9.63,18.36 -3.69001,2.07 -8.82001,2.97 -16.20001,2.97 z"
         style="font-style:normal;font-variant:normal;font-weight:600;font-stretch:normal;font-size:90px;line-height:1.25;font-family:'URW Gothic L';-inkscape-font-specification:'URW Gothic L Semi-Bold';fill:#fb8c00;fill-opacity:1"
         id="path2169"
         inkscape:connector-curvature="0" />
      <path
         d="m 526.70781,101.67102 h 14.67 l 15.48,-22.949995 15.93,22.949995 h 14.31 l -23.04,-33.119995 23.04,-33.39 h -14.31 l -15.93,23.22 -15.48,-23.22 h -14.67 l 22.86,33.39 z"
         style="font-style:normal;font-variant:normal;font-weight:600;font-stretch:normal;font-size:90px;line-height:1.25;font-family:'URW Gothic L';-inkscape-font-specification:'URW Gothic L Semi-Bold';fill:#fb8c00;fill-opacity:1"
         id="path2171"
         inkscape:connector-curvature="0" />
    </g>
  </g>
</svg>
