<?xml version="1.0" encoding="UTF-8" standalone="no"?>
<!-- Generator: Adobe Illustrator 19.0.0, SVG Export Plug-In . SVG Version: 6.00 Build 0)  -->

<svg
   xmlns:dc="http://purl.org/dc/elements/1.1/"
   xmlns:cc="http://creativecommons.org/ns#"
   xmlns:rdf="http://www.w3.org/1999/02/22-rdf-syntax-ns#"
   xmlns:svg="http://www.w3.org/2000/svg"
   xmlns="http://www.w3.org/2000/svg"
   xmlns:sodipodi="http://sodipodi.sourceforge.net/DTD/sodipodi-0.dtd"
   xmlns:inkscape="http://www.inkscape.org/namespaces/inkscape"
   version="1.1"
   id="Capa_1"
   x="0px"
   y="0px"
   viewBox="0 0 3.9201328 3.9201328"
   xml:space="preserve"
   width="36"
   height="36"
   inkscape:version="0.91 r13725"
   sodipodi:docname="ic_arrow_bottom.svg"><metadata
     id="metadata11"><rdf:RDF><cc:Work
         rdf:about=""><dc:format>image/svg+xml</dc:format><dc:type
           rdf:resource="http://purl.org/dc/dcmitype/StillImage" /><dc:title /></cc:Work></rdf:RDF></metadata><defs
     id="defs9" /><sodipodi:namedview
     pagecolor="#b6b6b6"
     bordercolor="#666666"
     borderopacity="1"
     objecttolerance="10"
     gridtolerance="10"
     guidetolerance="10"
     inkscape:pageopacity="0"
     inkscape:pageshadow="2"
     inkscape:window-width="1920"
     inkscape:window-height="1023"
     id="namedview7"
     showgrid="false"
     inkscape:zoom="7.375"
     inkscape:cx="-46.516575"
     inkscape:cy="10.247243"
     inkscape:window-x="0"
     inkscape:window-y="27"
     inkscape:window-maximized="1"
     inkscape:current-layer="Capa_1" /><g
     id="g3"
     transform="matrix(0,-0.07031313,0.07031313,0,1.2563867e-4,3.9874207)"
     style="fill:#fb8c00;fill-opacity:1"><path
       d="m 12.745,23.915 c 0.283,-0.282 0.59,-0.52 0.913,-0.727 L 35.266,1.581 c 2.108,-2.107 5.528,-2.108 7.637,0.001 2.109,2.108 2.109,5.527 0,7.637 L 24.294,27.828 42.999,46.534 c 2.109,2.108 2.109,5.526 0,7.637 -1.055,1.056 -2.438,1.582 -3.818,1.582 -1.38,0 -2.764,-0.526 -3.818,-1.582 L 13.658,32.464 c -0.323,-0.207 -0.632,-0.445 -0.913,-0.727 -1.078,-1.078 -1.598,-2.498 -1.572,-3.911 -0.026,-1.413 0.494,-2.832 1.572,-3.911 z"
       id="path5"
       inkscape:connector-curvature="0"
       style="fill:#fb8c00;fill-opacity:1" /></g></svg>